<svg version="1.1" id="Layer_1" xmlns="http://www.w3.org/2000/svg" xmlns:xlink="http://www.w3.org/1999/xlink" x="0px" y="0px"
	 width="100%" viewBox="0 0 1843 1843" enable-background="new 0 0 1843 1843" xml:space="preserve">
<path fill="#FFFFFE" opacity="1.000000" stroke="none" 
	d="
M1069.000000,1844.000000 
	C712.666687,1844.000000 356.833344,1844.000000 1.000000,1844.000000 
	C1.000000,1229.666626 1.000000,615.333313 1.000000,1.000000 
	C615.333313,1.000000 1229.666626,1.000000 1844.000000,1.000000 
	C1844.000000,615.333313 1844.000000,1229.666626 1844.000000,1844.000000 
	C1585.833374,1844.000000 1327.666626,1844.000000 1069.000000,1844.000000 
M1408.878418,656.955383 
	C1409.203857,657.896484 1409.387573,658.919128 1409.875732,659.766479 
	C1417.085571,672.280884 1424.708740,684.573608 1431.486328,697.316528 
	C1440.881226,714.980713 1450.472656,732.619141 1458.460571,750.931396 
	C1467.126831,770.798889 1474.577515,791.247559 1481.553467,811.784119 
	C1486.514893,826.390015 1489.912964,841.534729 1493.818726,856.488647 
	C1496.614746,867.194275 1499.514648,877.901062 1501.615845,888.752991 
	C1504.545532,903.882996 1507.100098,919.104065 1509.195190,934.371277 
	C1510.812744,946.159973 1511.828979,958.059998 1512.485229,969.945190 
	C1513.575562,989.688843 1514.536377,1009.454895 1514.822754,1029.222046 
	C1514.998291,1041.338013 1514.052612,1053.490723 1513.172241,1065.595093 
	C1512.330444,1077.168823 1511.365845,1088.767090 1509.660156,1100.236450 
	C1506.933350,1118.572021 1503.739502,1136.844849 1500.374512,1155.076172 
	C1498.218018,1166.760498 1495.770020,1178.418945 1492.778687,1189.913818 
	C1489.428589,1202.787231 1485.378418,1215.480957 1481.508301,1228.214966 
	C1479.977295,1233.252563 1478.202881,1238.222290 1476.377441,1243.163086 
	C1472.713135,1253.081787 1469.079346,1263.015991 1465.158081,1272.833984 
	C1462.522705,1279.432861 1459.418701,1285.844604 1456.517456,1292.337036 
	C1451.110352,1304.436646 1446.301147,1316.851440 1440.134766,1328.550903 
	C1432.569824,1342.903564 1424.065674,1356.777588 1415.602173,1370.635498 
	C1407.410400,1384.048340 1399.351318,1397.609863 1390.149536,1410.321289 
	C1379.087158,1425.603394 1367.514404,1440.619141 1355.011353,1454.730225 
	C1338.218506,1473.682739 1320.745239,1492.084473 1302.753540,1509.904419 
	C1290.810425,1521.733765 1277.703613,1532.443359 1264.646851,1543.076050 
	C1253.084595,1552.491455 1240.738037,1560.937134 1228.992554,1570.136230 
	C1220.806030,1576.547974 1212.009155,1582.156738 1208.086548,1593.011963 
	C1203.178223,1606.595337 1203.157471,1620.152222 1210.458618,1631.840698 
	C1224.196655,1653.833618 1252.908691,1660.246582 1275.302246,1643.504150 
	C1293.735229,1629.722778 1311.875244,1615.539307 1329.900757,1601.226196 
	C1353.081055,1582.819824 1374.388062,1562.390503 1394.554932,1540.718750 
	C1415.832397,1517.853027 1436.285278,1494.313232 1454.502563,1468.924805 
	C1461.158936,1459.648071 1467.077026,1449.841675 1473.916260,1439.968994 
	C1475.460327,1438.023682 1477.212036,1436.207153 1478.512939,1434.110840 
	C1484.546265,1424.388062 1490.681885,1414.717407 1496.353516,1404.784180 
	C1504.570923,1390.392456 1512.989624,1376.069946 1520.278809,1361.206055 
	C1528.877563,1343.671753 1536.637939,1325.707642 1544.245361,1307.711670 
	C1550.384644,1293.188354 1556.580933,1278.598633 1561.278320,1263.577515 
	C1568.356934,1240.942505 1574.424561,1217.976929 1580.392456,1195.014282 
	C1584.265259,1180.112305 1587.640381,1165.046509 1590.404541,1149.902100 
	C1592.543457,1138.181885 1593.565796,1126.243530 1594.769409,1114.370239 
	C1596.842407,1093.918579 1599.792236,1073.473267 1600.358643,1052.969482 
	C1601.418335,1014.599487 1601.581909,976.158325 1596.633789,937.958862 
	C1594.140137,918.708008 1591.577515,899.438477 1588.089844,880.352173 
	C1585.003418,863.461304 1580.846802,846.749084 1576.689819,830.075928 
	C1572.917114,814.943848 1569.229126,799.724243 1564.199463,784.988342 
	C1557.573608,765.576294 1550.061279,746.438293 1542.198120,727.486145 
	C1535.816162,712.104492 1528.786377,696.952087 1521.258179,682.096252 
	C1512.720337,665.248413 1503.741577,648.589417 1494.187622,632.298035 
	C1471.708130,593.966248 1445.806152,558.023682 1416.556152,524.561035 
	C1405.298584,511.682037 1393.683105,499.090088 1381.753784,486.831451 
	C1370.748413,475.522186 1359.487183,464.398804 1347.641357,453.986908 
	C1333.854614,441.869019 1319.404663,430.494965 1305.057861,419.029144 
	C1296.635986,412.298370 1288.196289,405.489471 1279.165039,399.641846 
	C1259.411377,386.851654 1239.558105,374.164673 1219.208984,362.360382 
	C1201.892334,352.315125 1183.941650,343.331879 1166.043091,334.332947 
	C1156.082886,329.325317 1145.847290,324.730072 1135.400146,320.853912 
	C1112.545166,312.374207 1089.641113,303.960632 1066.449463,296.472656 
	C1041.641846,288.462952 1016.404968,281.662537 990.442261,278.614258 
	C967.685730,275.942383 944.838501,273.417053 921.965576,272.539856 
	C899.201538,271.666809 876.316040,272.209015 853.557434,273.465149 
	C833.231323,274.587036 812.844971,276.571167 792.780457,279.935608 
	C772.229675,283.381683 751.877502,288.370880 731.734375,293.785797 
	C712.431519,298.974945 693.241455,304.853943 674.498047,311.773865 
	C657.615967,318.006561 641.265442,325.760010 624.943604,333.404572 
	C611.149109,339.865417 597.337708,346.465302 584.246155,354.208160 
	C567.604492,364.050690 551.411804,374.720245 535.528259,385.756683 
	C521.097473,395.783722 506.869873,406.219177 493.413971,417.501709 
	C479.196075,429.423157 465.748169,442.303497 452.431000,455.245605 
	C441.986664,465.395782 431.540833,475.697449 422.365143,486.965607 
	C406.877563,505.985016 392.197052,525.675293 377.538239,545.352478 
	C357.746796,571.919373 342.193115,601.082031 327.882446,630.790222 
	C318.950134,649.333191 312.056915,668.887085 304.769928,688.184143 
	C299.629242,701.797424 295.288544,715.716370 290.740662,729.548218 
	C288.608551,736.032715 286.478851,742.554565 284.985260,749.202698 
	C283.294281,756.729614 282.419739,764.435913 281.007843,772.030334 
	C278.564026,785.175537 275.397186,798.215698 273.605530,811.445068 
	C271.492432,827.048035 269.949921,842.777710 269.188324,858.502258 
	C268.136108,880.227295 267.276764,902.016785 267.780945,923.745056 
	C268.195557,941.612610 270.263367,959.486816 272.435089,977.255737 
	C274.519562,994.310730 276.976532,1011.384033 280.554779,1028.175537 
	C284.545227,1046.901367 289.554352,1065.444092 294.931061,1083.829468 
	C299.128906,1098.183960 303.966248,1112.419922 309.601013,1126.268433 
	C317.090759,1144.675903 325.264526,1162.831299 333.840057,1180.762329 
	C340.387909,1194.453491 347.110565,1208.217163 355.361938,1220.903687 
	C370.322845,1243.906006 385.712646,1266.717773 402.377441,1288.496338 
	C416.167114,1306.517578 431.736511,1323.225708 447.124176,1339.957520 
	C456.670776,1350.337891 467.176636,1359.865234 477.573944,1369.425415 
	C486.220398,1377.375732 494.942108,1385.343262 504.334076,1392.361694 
	C519.812622,1403.928467 535.642517,1415.061035 551.735901,1425.757324 
	C564.274780,1434.091309 577.271667,1441.779785 590.377563,1449.203369 
	C601.437866,1455.468628 612.888611,1461.058838 624.276672,1466.726562 
	C633.164795,1471.150024 642.025208,1475.734863 651.247864,1479.356934 
	C666.947571,1485.523193 682.797607,1491.368286 698.818787,1496.635864 
	C713.068787,1501.321045 727.513428,1505.552124 742.095215,1509.055420 
	C760.120361,1513.385986 778.230164,1517.855591 796.565735,1520.287476 
	C824.197266,1523.952271 852.008789,1526.756104 879.834045,1528.294067 
	C899.530029,1529.382690 919.412292,1528.383301 939.142639,1527.184326 
	C956.346252,1526.138794 973.496521,1523.823242 990.590149,1521.483154 
	C1004.394165,1519.593262 1018.220215,1517.439697 1031.778076,1514.290649 
	C1046.576294,1510.853516 1061.094727,1506.196167 1075.701294,1501.954346 
	C1085.222412,1499.189453 1094.881348,1496.738403 1104.126831,1493.221924 
	C1120.113281,1487.141846 1135.973145,1480.673340 1151.600464,1473.725220 
	C1161.433838,1469.353271 1171.337524,1465.112915 1177.973145,1455.403809 
	C1186.181030,1443.394043 1187.175659,1430.404419 1184.150635,1417.245483 
	C1182.360474,1409.459229 1177.123413,1402.620361 1170.511719,1397.423462 
	C1158.015137,1387.601318 1144.115112,1384.089722 1129.028320,1389.844482 
	C1109.334229,1397.356567 1090.144043,1406.226440 1070.315796,1413.337646 
	C1054.785645,1418.907227 1038.825928,1423.717529 1022.680725,1427.031494 
	C997.357239,1432.229614 971.854919,1437.350464 946.170776,1439.769653 
	C921.255127,1442.116699 896.004883,1441.659424 870.919556,1441.271973 
	C837.821167,1440.760864 805.259583,1435.382812 773.168518,1427.394165 
	C758.389465,1423.715210 743.526733,1420.102417 729.142090,1415.174561 
	C709.891357,1408.579712 690.683228,1401.585815 672.168762,1393.192749 
	C653.517639,1384.737671 635.637024,1374.546631 617.601257,1364.779297 
	C592.844849,1351.372314 570.462341,1334.450928 548.906677,1316.512939 
	C536.125366,1305.876587 523.795959,1294.593750 512.130981,1282.747314 
	C499.686584,1270.109375 487.665344,1256.946411 476.557556,1243.129883 
	C464.506470,1228.140015 453.293365,1212.421265 442.526581,1196.472412 
	C434.662964,1184.823730 427.781769,1172.468262 421.066925,1160.099731 
	C413.517975,1146.194824 406.224030,1132.116211 399.619659,1117.745361 
	C394.522278,1106.653442 390.388855,1095.089600 386.318817,1083.562012 
	C381.309296,1069.373413 376.280762,1055.152222 372.245544,1040.670532 
	C368.472015,1027.127930 365.342255,1013.330933 363.091034,999.457397 
	C360.039520,980.651672 357.915802,961.686707 355.758911,942.748535 
	C354.806549,934.386169 354.484070,925.926086 354.347748,917.502686 
	C354.122437,903.582581 354.010925,889.649170 354.377258,875.735229 
	C354.594940,867.466187 355.658936,859.204895 356.623230,850.973022 
	C358.707214,833.182556 360.143982,815.259521 363.407959,797.680847 
	C366.363190,781.765015 370.747375,766.029114 375.661041,750.582703 
	C382.767761,728.242249 389.888519,705.802368 398.929413,684.211426 
	C407.251007,664.338318 417.345154,645.086609 428.097137,626.388489 
	C437.368591,610.265076 448.618042,595.274109 459.077576,579.839844 
	C476.872498,553.581360 498.531311,530.647461 521.347229,508.830688 
	C533.451477,497.256592 546.053284,486.067322 559.353088,475.912872 
	C576.572449,462.765839 594.494690,450.496979 612.548645,438.503906 
	C621.450806,432.590363 631.327820,428.144104 640.765259,423.036713 
	C650.479309,417.779633 659.969788,412.040619 669.968079,407.394897 
	C682.241272,401.692200 694.751709,396.374725 707.501465,391.855194 
	C723.391479,386.222473 739.470825,380.974335 755.756042,376.641144 
	C779.966675,370.199036 804.337952,364.281525 829.481934,362.457062 
	C849.006897,361.040314 868.494934,358.404022 888.030701,358.053284 
	C906.589661,357.720001 925.192505,359.591492 943.770264,360.599152 
	C969.530518,361.996429 994.858398,366.483124 1019.835571,372.599762 
	C1044.174316,378.560089 1068.054443,386.116425 1091.012207,396.405579 
	C1107.459961,403.777191 1124.583496,409.761871 1140.605469,417.934021 
	C1162.154297,428.925293 1183.421753,440.648712 1203.896362,453.512085 
	C1222.214966,465.020874 1239.729980,477.944183 1256.794067,491.274506 
	C1272.574585,503.602112 1287.443481,517.121704 1302.404175,530.463684 
	C1309.953857,537.196533 1316.906006,544.612671 1323.968018,551.875671 
	C1331.823120,559.954529 1339.737549,567.997803 1347.181274,576.448425 
	C1354.965820,585.285950 1362.440796,594.419495 1369.651489,603.733032 
	C1378.339355,614.954651 1386.602661,626.504822 1395.057007,637.907471 
	C1399.595703,644.028687 1404.149536,650.138855 1408.878418,656.955383 
M496.186584,793.664062 
	C494.494049,810.871521 492.058594,828.044861 491.266235,845.293640 
	C489.696472,879.465820 492.067200,913.461975 497.916779,947.213867 
	C504.424835,984.765076 515.111206,1021.078308 530.212036,1056.029053 
	C542.972717,1085.563599 558.672791,1113.511963 577.090210,1139.942993 
	C596.281738,1167.484741 618.097717,1192.758667 642.650391,1215.578735 
	C669.038391,1240.104492 697.788208,1261.527344 728.993286,1279.675171 
	C753.818298,1294.112671 779.609192,1306.465698 806.628357,1316.044434 
	C823.217590,1321.925659 840.171936,1326.912354 857.204102,1331.378906 
	C887.714417,1339.379883 918.916992,1343.621216 950.384338,1344.570190 
	C970.970337,1345.190796 991.649841,1344.092529 1012.238525,1342.911377 
	C1041.066406,1341.257446 1069.251221,1335.400391 1097.077271,1327.883423 
	C1107.808350,1324.984619 1116.603760,1313.865723 1117.743896,1302.609741 
	C1118.929199,1290.908691 1112.352051,1278.984009 1102.157471,1273.519897 
	C1093.072266,1268.650391 1083.895264,1269.608276 1074.505737,1272.107056 
	C1048.220703,1279.101562 1021.424255,1283.289185 994.326721,1284.757446 
	C966.540833,1286.262939 938.790283,1285.169678 911.141113,1281.194458 
	C867.132446,1274.867188 825.245850,1261.862305 785.418457,1242.277100 
	C738.639099,1219.273193 697.391418,1188.669189 662.003723,1150.379883 
	C641.972778,1128.706543 624.309265,1105.182495 609.236389,1079.745850 
	C595.538757,1056.630005 584.104065,1032.425903 575.095581,1007.160706 
	C566.656250,983.491760 560.482910,959.195251 556.325073,934.338989 
	C552.609253,912.124695 550.401733,889.804749 550.289368,867.351746 
	C550.172791,844.053162 552.228577,820.869873 555.931274,797.803955 
	C561.076050,765.754395 570.200623,734.872009 582.581665,704.986755 
	C595.012878,674.980652 613.904358,648.985168 635.571655,625.089905 
	C665.419678,592.172668 700.592834,566.330139 740.857605,547.299927 
	C780.320129,528.648865 821.754272,517.786438 865.224976,515.185303 
	C899.458374,513.136902 933.342712,516.060181 966.714294,524.564392 
	C1019.392822,537.988525 1066.420288,562.119019 1107.434448,597.843628 
	C1134.242676,621.194519 1156.880615,648.070923 1175.007568,678.671936 
	C1196.578857,715.087524 1211.383423,753.955566 1218.454102,795.847412 
	C1224.835938,833.659119 1225.013184,871.374695 1218.757568,909.102356 
	C1212.443115,947.184937 1199.537354,983.000183 1180.898071,1016.836487 
	C1166.359619,1043.228394 1148.598755,1067.209839 1127.704590,1088.789673 
	C1103.233521,1114.063721 1075.125122,1134.637695 1044.053467,1151.158691 
	C1039.797852,1153.421387 1035.139160,1155.333740 1031.601929,1158.464600 
	C1020.446960,1168.338257 1018.990051,1184.840332 1026.307739,1197.140259 
	C1032.774048,1208.009277 1050.473999,1215.546997 1064.447632,1207.609253 
	C1083.080811,1197.024414 1102.068359,1186.778442 1119.474609,1174.380615 
	C1151.199219,1151.784302 1178.694214,1124.527832 1202.233765,1093.332642 
	C1224.638672,1063.640869 1242.559692,1031.493042 1256.048096,996.887146 
	C1269.408813,962.608643 1277.768677,927.149170 1281.269897,890.460327 
	C1283.876587,863.146057 1283.566284,835.894226 1280.609741,808.728271 
	C1277.399414,779.229248 1270.696655,750.420044 1260.944092,722.334839 
	C1250.244873,691.523804 1236.018433,662.447205 1218.245972,635.142212 
	C1195.575195,600.311462 1168.171021,569.683167 1135.779419,543.571411 
	C1106.059570,519.613464 1073.607544,500.157959 1038.390259,485.518188 
	C1001.303833,470.101471 962.710327,460.576202 922.635071,456.820984 
	C888.444519,453.617218 854.475342,454.932373 820.683533,460.479706 
	C794.366760,464.799957 768.716064,471.817139 743.781799,481.399139 
	C710.677002,494.121002 679.748047,510.805695 651.043701,531.642517 
	C623.294067,551.786377 598.553162,575.131348 577.059570,601.814758 
	C556.222168,627.683533 538.135132,655.243164 525.753784,686.342773 
	C512.042786,720.782471 501.927948,756.151794 496.186584,793.664062 
M713.608276,996.883484 
	C716.777771,1000.731506 719.776611,1004.736267 723.145203,1008.401367 
	C741.630310,1028.513550 762.512146,1045.482178 786.747559,1058.425415 
	C815.816956,1073.950562 846.650574,1083.297119 879.399597,1085.642944 
	C914.537659,1088.159790 948.718872,1083.324707 981.672668,1070.247314 
	C1010.677612,1058.737061 1036.339355,1042.252441 1058.842651,1020.695312 
	C1079.020630,1001.365662 1095.015381,979.048950 1106.769775,953.735046 
	C1112.887207,940.560547 1108.741943,927.546448 1096.669189,922.568481 
	C1086.054443,918.191650 1073.876709,921.975891 1067.567505,935.937683 
	C1054.116943,965.703003 1033.301880,989.718811 1006.754333,1008.524597 
	C978.916138,1028.244507 947.788818,1040.016235 913.756531,1042.849365 
	C882.813904,1045.425293 852.798340,1040.911133 823.946289,1028.774048 
	C779.313232,1009.998596 746.755310,978.521240 725.723816,935.307373 
	C707.846497,898.574341 703.008972,859.558105 710.435669,819.508301 
	C717.128967,783.413269 733.038147,751.484497 758.147522,724.415222 
	C773.811279,707.528809 792.308960,694.428833 812.537903,683.567932 
	C821.980774,678.498108 825.654053,666.455566 820.110901,655.193298 
	C815.253235,645.323975 801.692017,641.352905 791.994934,646.274475 
	C754.504944,665.301514 724.279175,692.546570 701.535095,727.781372 
	C681.925537,758.160278 670.117065,791.618958 666.136536,827.567078 
	C662.352844,861.737244 665.681641,895.311890 676.677612,928.025574 
	C685.020142,952.845093 697.341675,975.507202 713.608276,996.883484 
z"/>
<path fill="#DDAC4E" opacity="1.000000" stroke="none" 
	d="
M496.271088,793.235779 
	C501.927948,756.151794 512.042786,720.782471 525.753784,686.342773 
	C538.135132,655.243164 556.222168,627.683533 577.059570,601.814758 
	C598.553162,575.131348 623.294067,551.786377 651.043701,531.642517 
	C679.748047,510.805695 710.677002,494.121002 743.781799,481.399139 
	C768.716064,471.817139 794.366760,464.799957 820.683533,460.479706 
	C854.475342,454.932373 888.444519,453.617218 922.635071,456.820984 
	C962.710327,460.576202 1001.303833,470.101471 1038.390259,485.518188 
	C1073.607544,500.157959 1106.059570,519.613464 1135.779419,543.571411 
	C1168.171021,569.683167 1195.575195,600.311462 1218.245972,635.142212 
	C1236.018433,662.447205 1250.244873,691.523804 1260.944092,722.334839 
	C1270.696655,750.420044 1277.399414,779.229248 1280.609741,808.728271 
	C1283.566284,835.894226 1283.876587,863.146057 1281.269897,890.460327 
	C1277.768677,927.149170 1269.408813,962.608643 1256.048096,996.887146 
	C1242.559692,1031.493042 1224.638672,1063.640869 1202.233765,1093.332642 
	C1178.694214,1124.527832 1151.199219,1151.784302 1119.474609,1174.380615 
	C1102.068359,1186.778442 1083.080811,1197.024414 1064.447632,1207.609253 
	C1050.473999,1215.546997 1032.774048,1208.009277 1026.307739,1197.140259 
	C1018.990051,1184.840332 1020.446960,1168.338257 1031.601929,1158.464600 
	C1035.139160,1155.333740 1039.797852,1153.421387 1044.053467,1151.158691 
	C1075.125122,1134.637695 1103.233521,1114.063721 1127.704590,1088.789673 
	C1148.598755,1067.209839 1166.359619,1043.228394 1180.898071,1016.836487 
	C1199.537354,983.000183 1212.443115,947.184937 1218.757568,909.102356 
	C1225.013184,871.374695 1224.835938,833.659119 1218.454102,795.847412 
	C1211.383423,753.955566 1196.578857,715.087524 1175.007568,678.671936 
	C1156.880615,648.070923 1134.242676,621.194519 1107.434448,597.843628 
	C1066.420288,562.119019 1019.392822,537.988525 966.714294,524.564392 
	C933.342712,516.060181 899.458374,513.136902 865.224976,515.185303 
	C821.754272,517.786438 780.320129,528.648865 740.857605,547.299927 
	C700.592834,566.330139 665.419678,592.172668 635.571655,625.089905 
	C613.904358,648.985168 595.012878,674.980652 582.581665,704.986755 
	C570.200623,734.872009 561.076050,765.754395 555.931274,797.803955 
	C552.228577,820.869873 550.172791,844.053162 550.289368,867.351746 
	C550.401733,889.804749 552.609253,912.124695 556.325073,934.338989 
	C560.482910,959.195251 566.656250,983.491760 575.095581,1007.160706 
	C584.104065,1032.425903 595.538757,1056.630005 609.236389,1079.745850 
	C624.309265,1105.182495 641.972778,1128.706543 662.003723,1150.379883 
	C697.391418,1188.669189 738.639099,1219.273193 785.418457,1242.277100 
	C825.245850,1261.862305 867.132446,1274.867188 911.141113,1281.194458 
	C938.790283,1285.169678 966.540833,1286.262939 994.326721,1284.757446 
	C1021.424255,1283.289185 1048.220703,1279.101562 1074.505737,1272.107056 
	C1083.895264,1269.608276 1093.072266,1268.650391 1102.157471,1273.519897 
	C1112.352051,1278.984009 1118.929199,1290.908691 1117.743896,1302.609741 
	C1116.603760,1313.865723 1107.808350,1324.984619 1097.077271,1327.883423 
	C1069.251221,1335.400391 1041.066406,1341.257446 1012.238525,1342.911377 
	C991.649841,1344.092529 970.970337,1345.190796 950.384338,1344.570190 
	C918.916992,1343.621216 887.714417,1339.379883 857.204102,1331.378906 
	C840.171936,1326.912354 823.217590,1321.925659 806.628357,1316.044434 
	C779.609192,1306.465698 753.818298,1294.112671 728.993286,1279.675171 
	C697.788208,1261.527344 669.038391,1240.104492 642.650391,1215.578735 
	C618.097717,1192.758667 596.281738,1167.484741 577.090210,1139.942993 
	C558.672791,1113.511963 542.972717,1085.563599 530.212036,1056.029053 
	C515.111206,1021.078308 504.424835,984.765076 497.916779,947.213867 
	C492.067200,913.461975 489.696472,879.465820 491.266235,845.293640 
	C492.058594,828.044861 494.494049,810.871521 496.271088,793.235779 
z"/>
<path fill="#DDAD4F" opacity="1.000000" stroke="none" 
	d="
M713.406311,996.586060 
	C697.341675,975.507202 685.020142,952.845093 676.677612,928.025574 
	C665.681641,895.311890 662.352844,861.737244 666.136536,827.567078 
	C670.117065,791.618958 681.925537,758.160278 701.535095,727.781372 
	C724.279175,692.546570 754.504944,665.301514 791.994934,646.274475 
	C801.692017,641.352905 815.253235,645.323975 820.110901,655.193298 
	C825.654053,666.455566 821.980774,678.498108 812.537903,683.567932 
	C792.308960,694.428833 773.811279,707.528809 758.147522,724.415222 
	C733.038147,751.484497 717.128967,783.413269 710.435669,819.508301 
	C703.008972,859.558105 707.846497,898.574341 725.723816,935.307373 
	C746.755310,978.521240 779.313232,1009.998596 823.946289,1028.774048 
	C852.798340,1040.911133 882.813904,1045.425293 913.756531,1042.849365 
	C947.788818,1040.016235 978.916138,1028.244507 1006.754333,1008.524597 
	C1033.301880,989.718811 1054.116943,965.703003 1067.567505,935.937683 
	C1073.876709,921.975891 1086.054443,918.191650 1096.669189,922.568481 
	C1108.741943,927.546448 1112.887207,940.560547 1106.769775,953.735046 
	C1095.015381,979.048950 1079.020630,1001.365662 1058.842651,1020.695312 
	C1036.339355,1042.252441 1010.677612,1058.737061 981.672668,1070.247314 
	C948.718872,1083.324707 914.537659,1088.159790 879.399597,1085.642944 
	C846.650574,1083.297119 815.816956,1073.950562 786.747559,1058.425415 
	C762.512146,1045.482178 741.630310,1028.513550 723.145203,1008.401367 
	C719.776611,1004.736267 716.777771,1000.731506 713.406311,996.586060 
z"/>
<path fill="#D4B674" opacity="1.000000" stroke="none" 
	d="
M1408.696533,656.253967 
	C1404.149536,650.138855 1399.595703,644.028687 1395.057007,637.907471 
	C1386.602661,626.504822 1378.339355,614.954651 1369.651489,603.733032 
	C1362.440796,594.419495 1354.965820,585.285950 1347.181274,576.448425 
	C1339.737549,567.997803 1331.823120,559.954529 1323.968018,551.875671 
	C1316.906006,544.612671 1309.953857,537.196533 1302.404175,530.463684 
	C1287.443481,517.121704 1272.574585,503.602112 1256.794067,491.274506 
	C1239.729980,477.944183 1222.214966,465.020874 1203.896362,453.512085 
	C1183.421753,440.648712 1162.154297,428.925293 1140.605469,417.934021 
	C1124.583496,409.761871 1107.459961,403.777191 1091.012207,396.405579 
	C1068.054443,386.116425 1044.174316,378.560089 1019.835571,372.599762 
	C994.858398,366.483124 969.530518,361.996429 943.770264,360.599152 
	C925.192505,359.591492 906.589661,357.720001 888.030701,358.053284 
	C868.494934,358.404022 849.006897,361.040314 829.481934,362.457062 
	C804.337952,364.281525 779.966675,370.199036 755.756042,376.641144 
	C739.470825,380.974335 723.391479,386.222473 707.501465,391.855194 
	C694.751709,396.374725 682.241272,401.692200 669.968079,407.394897 
	C659.969788,412.040619 650.479309,417.779633 640.765259,423.036713 
	C631.327820,428.144104 621.450806,432.590363 612.548645,438.503906 
	C594.494690,450.496979 576.572449,462.765839 559.353088,475.912872 
	C546.053284,486.067322 533.451477,497.256592 521.347229,508.830688 
	C498.531311,530.647461 476.872498,553.581360 459.077576,579.839844 
	C448.618042,595.274109 437.368591,610.265076 428.097137,626.388489 
	C417.345154,645.086609 407.251007,664.338318 398.929413,684.211426 
	C389.888519,705.802368 382.767761,728.242249 375.661041,750.582703 
	C370.747375,766.029114 366.363190,781.765015 363.407959,797.680847 
	C360.143982,815.259521 358.707214,833.182556 356.623230,850.973022 
	C355.658936,859.204895 354.594940,867.466187 354.377258,875.735229 
	C354.010925,889.649170 354.122437,903.582581 354.347748,917.502686 
	C354.484070,925.926086 354.806549,934.386169 355.758911,942.748535 
	C357.915802,961.686707 360.039520,980.651672 363.091034,999.457397 
	C365.342255,1013.330933 368.472015,1027.127930 372.245544,1040.670532 
	C376.280762,1055.152222 381.309296,1069.373413 386.318817,1083.562012 
	C390.388855,1095.089600 394.522278,1106.653442 399.619659,1117.745361 
	C406.224030,1132.116211 413.517975,1146.194824 421.066925,1160.099731 
	C427.781769,1172.468262 434.662964,1184.823730 442.526581,1196.472412 
	C453.293365,1212.421265 464.506470,1228.140015 476.557556,1243.129883 
	C487.665344,1256.946411 499.686584,1270.109375 512.130981,1282.747314 
	C523.795959,1294.593750 536.125366,1305.876587 548.906677,1316.512939 
	C570.462341,1334.450928 592.844849,1351.372314 617.601257,1364.779297 
	C635.637024,1374.546631 653.517639,1384.737671 672.168762,1393.192749 
	C690.683228,1401.585815 709.891357,1408.579712 729.142090,1415.174561 
	C743.526733,1420.102417 758.389465,1423.715210 773.168518,1427.394165 
	C805.259583,1435.382812 837.821167,1440.760864 870.919556,1441.271973 
	C896.004883,1441.659424 921.255127,1442.116699 946.170776,1439.769653 
	C971.854919,1437.350464 997.357239,1432.229614 1022.680725,1427.031494 
	C1038.825928,1423.717529 1054.785645,1418.907227 1070.315796,1413.337646 
	C1090.144043,1406.226440 1109.334229,1397.356567 1129.028320,1389.844482 
	C1144.115112,1384.089722 1158.015137,1387.601318 1170.511719,1397.423462 
	C1177.123413,1402.620361 1182.360474,1409.459229 1184.150635,1417.245483 
	C1187.175659,1430.404419 1186.181030,1443.394043 1177.973145,1455.403809 
	C1171.337524,1465.112915 1161.433838,1469.353271 1151.600464,1473.725220 
	C1135.973145,1480.673340 1120.113281,1487.141846 1104.126831,1493.221924 
	C1094.881348,1496.738403 1085.222412,1499.189453 1075.701294,1501.954346 
	C1061.094727,1506.196167 1046.576294,1510.853516 1031.778076,1514.290649 
	C1018.220215,1517.439697 1004.394165,1519.593262 990.590149,1521.483154 
	C973.496521,1523.823242 956.346252,1526.138794 939.142639,1527.184326 
	C919.412292,1528.383301 899.530029,1529.382690 879.834045,1528.294067 
	C852.008789,1526.756104 824.197266,1523.952271 796.565735,1520.287476 
	C778.230164,1517.855591 760.120361,1513.385986 742.095215,1509.055420 
	C727.513428,1505.552124 713.068787,1501.321045 698.818787,1496.635864 
	C682.797607,1491.368286 666.947571,1485.523193 651.247864,1479.356934 
	C642.025208,1475.734863 633.164795,1471.150024 624.276672,1466.726562 
	C612.888611,1461.058838 601.437866,1455.468628 590.377563,1449.203369 
	C577.271667,1441.779785 564.274780,1434.091309 551.735901,1425.757324 
	C535.642517,1415.061035 519.812622,1403.928467 504.334076,1392.361694 
	C494.942108,1385.343262 486.220398,1377.375732 477.573944,1369.425415 
	C467.176636,1359.865234 456.670776,1350.337891 447.124176,1339.957520 
	C431.736511,1323.225708 416.167114,1306.517578 402.377441,1288.496338 
	C385.712646,1266.717773 370.322845,1243.906006 355.361938,1220.903687 
	C347.110565,1208.217163 340.387909,1194.453491 333.840057,1180.762329 
	C325.264526,1162.831299 317.090759,1144.675903 309.601013,1126.268433 
	C303.966248,1112.419922 299.128906,1098.183960 294.931061,1083.829468 
	C289.554352,1065.444092 284.545227,1046.901367 280.554779,1028.175537 
	C276.976532,1011.384033 274.519562,994.310730 272.435089,977.255737 
	C270.263367,959.486816 268.195557,941.612610 267.780945,923.745056 
	C267.276764,902.016785 268.136108,880.227295 269.188324,858.502258 
	C269.949921,842.777710 271.492432,827.048035 273.605530,811.445068 
	C275.397186,798.215698 278.564026,785.175537 281.007843,772.030334 
	C282.419739,764.435913 283.294281,756.729614 284.985260,749.202698 
	C286.478851,742.554565 288.608551,736.032715 290.740662,729.548218 
	C295.288544,715.716370 299.629242,701.797424 304.769928,688.184143 
	C312.056915,668.887085 318.950134,649.333191 327.882446,630.790222 
	C342.193115,601.082031 357.746796,571.919373 377.538239,545.352478 
	C392.197052,525.675293 406.877563,505.985016 422.365143,486.965607 
	C431.540833,475.697449 441.986664,465.395782 452.431000,455.245605 
	C465.748169,442.303497 479.196075,429.423157 493.413971,417.501709 
	C506.869873,406.219177 521.097473,395.783722 535.528259,385.756683 
	C551.411804,374.720245 567.604492,364.050690 584.246155,354.208160 
	C597.337708,346.465302 611.149109,339.865417 624.943604,333.404572 
	C641.265442,325.760010 657.615967,318.006561 674.498047,311.773865 
	C693.241455,304.853943 712.431519,298.974945 731.734375,293.785797 
	C751.877502,288.370880 772.229675,283.381683 792.780457,279.935608 
	C812.844971,276.571167 833.231323,274.587036 853.557434,273.465149 
	C876.316040,272.209015 899.201538,271.666809 921.965576,272.539856 
	C944.838501,273.417053 967.685730,275.942383 990.442261,278.614258 
	C1016.404968,281.662537 1041.641846,288.462952 1066.449463,296.472656 
	C1089.641113,303.960632 1112.545166,312.374207 1135.400146,320.853912 
	C1145.847290,324.730072 1156.082886,329.325317 1166.043091,334.332947 
	C1183.941650,343.331879 1201.892334,352.315125 1219.208984,362.360382 
	C1239.558105,374.164673 1259.411377,386.851654 1279.165039,399.641846 
	C1288.196289,405.489471 1296.635986,412.298370 1305.057861,419.029144 
	C1319.404663,430.494965 1333.854614,441.869019 1347.641357,453.986908 
	C1359.487183,464.398804 1370.748413,475.522186 1381.753784,486.831451 
	C1393.683105,499.090088 1405.298584,511.682037 1416.556152,524.561035 
	C1445.806152,558.023682 1471.708130,593.966248 1494.187622,632.298035 
	C1503.741577,648.589417 1512.720337,665.248413 1521.258179,682.096252 
	C1528.786377,696.952087 1535.816162,712.104492 1542.198120,727.486145 
	C1550.061279,746.438293 1557.573608,765.576294 1564.199463,784.988342 
	C1569.229126,799.724243 1572.917114,814.943848 1576.689819,830.075928 
	C1580.846802,846.749084 1585.003418,863.461304 1588.089844,880.352173 
	C1591.577515,899.438477 1594.140137,918.708008 1596.633789,937.958862 
	C1601.581909,976.158325 1601.418335,1014.599487 1600.358643,1052.969482 
	C1599.792236,1073.473267 1596.842407,1093.918579 1594.769409,1114.370239 
	C1593.565796,1126.243530 1592.543457,1138.181885 1590.404541,1149.902100 
	C1587.640381,1165.046509 1584.265259,1180.112305 1580.392456,1195.014282 
	C1574.424561,1217.976929 1568.356934,1240.942505 1561.278320,1263.577515 
	C1556.580933,1278.598633 1550.384644,1293.188354 1544.245361,1307.711670 
	C1536.637939,1325.707642 1528.877563,1343.671753 1520.278809,1361.206055 
	C1512.989624,1376.069946 1504.570923,1390.392456 1496.353516,1404.784180 
	C1490.681885,1414.717407 1484.546265,1424.388062 1478.512939,1434.110840 
	C1477.212036,1436.207153 1475.460327,1438.023682 1473.519531,1440.038086 
	C1473.122925,1440.107300 1472.914917,1439.936523 1472.940186,1439.554321 
	C1473.421997,1437.603027 1473.580322,1435.857178 1474.387451,1434.495850 
	C1477.644043,1429.002563 1481.118774,1423.638916 1484.479858,1418.207031 
	C1491.218872,1407.316406 1498.245728,1396.588257 1504.569214,1385.460815 
	C1510.140015,1375.658081 1515.123535,1365.502563 1519.988525,1355.322266 
	C1526.448730,1341.804077 1533.130737,1328.340088 1538.561768,1314.402588 
	C1541.592163,1306.625977 1547.477661,1299.593750 1546.480103,1290.425659 
	C1546.439209,1290.049072 1546.903442,1289.624878 1547.112183,1289.212646 
	C1549.116577,1285.253784 1551.486450,1281.430908 1553.030396,1277.299561 
	C1555.348145,1271.098389 1557.058228,1264.671631 1559.076294,1258.356812 
	C1563.015259,1246.031128 1567.464111,1233.844604 1570.824951,1221.364258 
	C1574.847290,1206.427124 1577.902344,1191.231079 1581.487915,1176.173828 
	C1582.446899,1172.146240 1584.035400,1168.264526 1584.923828,1164.225464 
	C1585.701904,1160.688354 1585.802856,1157.008057 1586.380737,1153.419800 
	C1587.527344,1146.302124 1589.037231,1139.235229 1589.956787,1132.090576 
	C1591.221680,1122.262085 1592.236572,1112.394409 1593.074707,1102.519409 
	C1594.502808,1085.697021 1596.418823,1068.873535 1596.843750,1052.018188 
	C1597.481934,1026.701660 1597.011597,1001.357239 1597.006104,976.024658 
	C1597.005859,974.526062 1597.059692,973.015808 1596.902344,971.530640 
	C1595.299683,956.402466 1593.883789,941.249634 1591.963745,926.161255 
	C1590.086426,911.408325 1587.868652,896.691345 1585.412964,882.023438 
	C1584.534668,876.777161 1581.384766,871.750244 1581.249756,866.571655 
	C1580.889648,852.756836 1576.279175,839.947754 1572.965942,826.869629 
	C1569.142212,811.775696 1564.715454,796.797668 1559.741455,782.041870 
	C1554.467529,766.396057 1548.403076,751.007874 1542.371216,735.629883 
	C1539.096436,727.281006 1535.267212,719.143250 1531.515015,710.989807 
	C1526.460938,700.007385 1521.703369,688.852905 1515.989380,678.217712 
	C1505.736328,659.134033 1494.977051,640.318115 1484.194946,621.524780 
	C1480.175293,614.518494 1475.678589,607.764648 1471.079224,601.117249 
	C1464.704102,591.903198 1458.140015,582.813965 1451.449707,573.825378 
	C1443.202026,562.744263 1434.836182,551.747437 1426.316772,540.874634 
	C1423.722046,537.563171 1420.271729,534.934998 1417.526367,531.725952 
	C1411.562500,524.754272 1405.915649,517.510437 1399.915161,510.571564 
	C1395.942139,505.977356 1391.526611,501.768921 1387.410278,497.294708 
	C1384.205200,493.811096 1381.389893,489.940796 1377.988647,486.671844 
	C1371.082397,480.034302 1363.882812,473.702667 1356.830322,467.216431 
	C1349.898804,460.841431 1343.121216,454.293091 1336.052002,448.075684 
	C1329.107422,441.967926 1321.908081,436.148041 1314.770630,430.262329 
	C1308.267456,424.899689 1301.901245,419.338165 1295.097168,414.382660 
	C1288.742432,409.754425 1281.785278,405.963013 1275.283813,401.524384 
	C1265.636108,394.937805 1256.335083,387.831421 1246.555908,381.452820 
	C1236.318848,374.775452 1225.846680,368.419647 1215.187012,362.440765 
	C1205.994385,357.284698 1196.605835,352.354675 1186.911011,348.253387 
	C1178.138550,344.542358 1170.273193,339.174164 1161.105835,336.057404 
	C1150.453491,332.435699 1140.660278,326.368011 1130.186768,322.119690 
	C1115.756714,316.266602 1101.147095,310.806458 1086.411011,305.773224 
	C1073.984741,301.528961 1061.356445,297.800354 1048.658081,294.448578 
	C1033.554077,290.461884 1018.305664,287.005066 1003.064026,283.566193 
	C997.923828,282.406433 992.619995,281.950104 987.378845,281.265106 
	C978.688232,280.129303 970.006958,278.867493 961.285522,278.040314 
	C954.357422,277.383148 947.236938,278.054901 940.442322,276.816986 
	C918.320190,272.786530 896.033752,274.318512 873.798035,274.000580 
	C872.300964,273.979156 870.794067,273.984253 869.305603,274.124146 
	C855.803772,275.393127 842.301819,276.662109 828.807129,278.004272 
	C823.877197,278.494598 818.942200,279.028015 814.053162,279.813843 
	C806.223083,281.072449 798.411194,282.463654 790.624329,283.968353 
	C777.086853,286.584259 763.213867,287.345215 750.009705,291.876556 
	C743.309448,294.175903 736.217163,295.306061 729.418274,297.350952 
	C715.039368,301.675629 700.731079,306.235657 686.406433,310.739288 
	C682.061646,312.105316 677.663330,313.370697 673.455200,315.087982 
	C664.046570,318.927612 654.744873,323.029266 645.392212,327.006653 
	C643.871582,327.653320 642.261169,328.104370 640.780640,328.826904 
	C634.491516,331.896179 628.220459,335.003479 621.972717,338.156097 
	C617.285767,340.521088 612.542908,342.801727 608.009277,345.437012 
	C602.684875,348.531982 597.937866,353.185455 592.253235,354.952820 
	C585.074158,357.184723 579.308350,361.396881 573.060059,364.985748 
	C570.925537,366.211761 569.165405,368.079742 567.057068,369.363403 
	C559.703979,373.840210 552.127625,377.966797 544.930542,382.676514 
	C541.014709,385.239044 537.859497,388.937653 534.059875,391.710907 
	C529.713623,394.883087 524.832336,397.331512 520.543884,400.571381 
	C513.953735,405.550140 507.703400,410.976471 501.246124,416.134308 
	C497.098877,419.446930 492.704742,422.460571 488.664398,425.894318 
	C483.902679,429.941193 479.406952,434.300812 474.789764,438.518066 
	C467.903717,444.807800 460.856842,450.931610 454.171234,457.427399 
	C448.630859,462.810516 443.539886,468.654297 438.192657,474.239258 
	C436.607819,475.894531 434.625885,477.195862 433.174805,478.948273 
	C426.806244,486.639648 420.558655,494.431274 414.280396,502.197235 
	C404.790466,513.935974 394.937927,525.406494 385.951721,537.519409 
	C379.345917,546.423706 373.849548,556.154480 367.915649,565.552856 
	C362.385132,574.312378 356.837708,583.063965 351.495056,591.937866 
	C349.811890,594.733643 348.986786,598.036804 347.385101,600.892578 
	C343.467651,607.877014 338.785919,614.482544 335.398804,621.703491 
	C330.022461,633.165222 325.358917,644.966919 320.563110,656.693970 
	C315.200531,669.806946 309.564606,682.835693 304.899078,696.198425 
	C300.125641,709.870300 296.270416,723.869385 292.230835,737.788452 
	C289.620697,746.782166 287.082123,755.819824 285.091766,764.964111 
	C282.810547,775.444824 281.073425,786.048645 279.278320,796.629272 
	C277.098419,809.477478 274.346893,822.291382 273.219635,835.239929 
	C271.759888,852.008423 271.517944,868.891174 271.027252,885.732727 
	C270.733673,895.809143 270.769012,905.905457 271.004059,915.984680 
	C271.507935,937.595215 271.290527,959.260620 275.910431,980.582153 
	C276.954956,985.402710 276.811188,990.469971 277.661163,995.345825 
	C279.277405,1004.617310 281.251312,1013.825867 283.011902,1023.072876 
	C285.107574,1034.079590 287.039032,1045.118652 289.264374,1056.098633 
	C289.775970,1058.623047 291.223358,1060.952148 292.187012,1063.392212 
	C292.838043,1065.040527 293.568817,1066.685913 293.964935,1068.401611 
	C295.474823,1074.941406 296.342163,1081.679321 298.414520,1088.028320 
	C301.873718,1098.626099 305.969238,1109.022461 309.995087,1119.427124 
	C313.540039,1128.588867 317.785095,1137.499634 320.949005,1146.784180 
	C325.362946,1159.737305 333.012543,1171.105103 338.032837,1183.834106 
	C342.731018,1195.746338 350.418152,1206.549072 357.336090,1217.494995 
	C363.107849,1226.627197 367.535889,1236.541504 374.906311,1244.795166 
	C380.674408,1251.254517 384.840820,1259.125854 389.903015,1266.238892 
	C395.282013,1273.796875 400.691345,1281.347290 406.427521,1288.633423 
	C413.218658,1297.259521 420.177521,1305.771973 427.430634,1314.010620 
	C433.546844,1320.957886 440.180115,1327.450562 446.598297,1334.131226 
	C452.428131,1340.199463 458.222900,1346.303101 464.150665,1352.274536 
	C465.843048,1353.979370 468.104034,1355.113892 469.830750,1356.791504 
	C476.657104,1363.423950 483.145844,1370.422852 490.216461,1376.777710 
	C494.630829,1380.745361 499.880737,1383.778442 504.710236,1387.293335 
	C505.640015,1387.970093 506.338318,1388.958130 507.177765,1389.766846 
	C509.524231,1392.027344 511.677307,1394.558838 514.286316,1396.463379 
	C521.828613,1401.968994 529.559265,1407.216553 537.212097,1412.571045 
	C542.961426,1416.593994 548.536438,1420.896729 554.488464,1424.592529 
	C564.679199,1430.920410 575.029053,1437.002930 585.451477,1442.943970 
	C596.600342,1449.299194 607.721191,1455.752441 619.204346,1461.458374 
	C630.273804,1466.958740 641.709473,1471.753418 653.133301,1476.499390 
	C663.704346,1480.891357 674.437988,1484.901611 685.172119,1488.885864 
	C689.099060,1490.343262 693.269165,1491.131226 697.263000,1492.426147 
	C701.618286,1493.838257 705.845154,1495.657227 710.223083,1496.985840 
	C716.224243,1498.806641 722.314880,1500.332764 728.367126,1501.985229 
	C738.196350,1504.668701 747.929871,1507.799561 757.878052,1509.926147 
	C771.291748,1512.793701 784.849609,1515.014404 798.384949,1517.276733 
	C810.766541,1519.346069 823.142517,1521.844604 835.625183,1522.820312 
	C854.071899,1524.261963 872.510559,1526.214111 891.128662,1525.157104 
	C904.172180,1524.416626 917.293457,1525.145264 930.376099,1524.952393 
	C937.333130,1524.849854 944.325867,1524.541626 951.224792,1523.693726 
	C964.748535,1522.031616 978.234558,1520.036133 991.704407,1517.971191 
	C1002.962708,1516.245361 1014.296082,1514.748535 1025.378662,1512.202881 
	C1039.683960,1508.916870 1053.771362,1504.682617 1067.955322,1500.867065 
	C1074.459595,1499.117310 1081.081299,1497.722534 1087.453491,1495.582153 
	C1098.130859,1491.995972 1108.735474,1488.156738 1119.217041,1484.033325 
	C1134.158447,1478.155884 1149.184570,1472.589966 1163.303711,1464.630127 
	C1173.621338,1458.813232 1179.283691,1449.973145 1181.621826,1439.539673 
	C1184.659424,1425.984253 1182.210327,1413.153442 1171.374023,1402.691284 
	C1158.710327,1390.464722 1144.398193,1387.391602 1128.073486,1393.163940 
	C1122.662964,1395.076904 1117.572510,1397.874878 1112.239990,1400.031616 
	C1098.374146,1405.639648 1084.659302,1411.724243 1070.501831,1416.480469 
	C1055.405884,1421.552002 1039.928711,1425.536865 1024.507690,1429.574707 
	C1014.768372,1432.124634 1004.879272,1434.198242 994.962769,1435.950073 
	C983.250366,1438.019409 971.462646,1439.725586 959.658508,1441.195190 
	C947.521790,1442.706177 935.316895,1444.854492 923.157898,1444.755127 
	C897.448425,1444.545044 871.684509,1446.938110 846.011353,1442.203857 
	C828.983093,1439.063843 811.473694,1438.580200 794.394836,1435.652222 
	C780.516418,1433.273071 766.885010,1429.291748 753.278137,1425.535400 
	C739.613098,1421.762939 726.025940,1417.654663 712.572815,1413.187256 
	C703.643188,1410.222046 694.953003,1406.501831 686.254333,1402.882446 
	C667.836975,1395.219116 649.357422,1387.632324 632.173523,1377.389160 
	C620.933960,1370.689331 609.968750,1363.528198 598.905579,1356.534180 
	C596.152649,1354.793945 593.464966,1352.945435 590.800537,1351.071045 
	C579.234802,1342.934082 567.532654,1334.978760 556.191162,1326.539429 
	C548.777100,1321.022461 541.863037,1314.828491 534.788635,1308.862183 
	C530.160889,1304.959106 525.494324,1301.079712 521.135376,1296.887939 
	C518.185242,1294.050903 515.853394,1290.580566 513.018127,1287.610107 
	C511.709412,1286.238892 509.600739,1285.629150 508.299622,1284.253418 
	C504.114319,1279.828247 500.190033,1275.157104 496.046417,1270.690796 
	C494.736603,1269.279053 492.757874,1268.443237 491.594910,1266.947510 
	C487.290283,1261.410645 483.359222,1255.580078 478.987335,1250.099487 
	C473.152161,1242.784546 466.686493,1235.952515 461.126068,1228.443237 
	C453.274292,1217.839600 445.926147,1206.858154 438.508636,1195.939209 
	C432.944061,1187.747803 427.264099,1179.601929 422.277435,1171.060913 
	C417.992554,1163.722046 414.598480,1155.861572 410.843018,1148.215820 
	C406.069092,1138.496582 401.116180,1128.857178 396.646912,1118.999146 
	C393.656250,1112.402344 391.279083,1105.519165 388.792755,1098.703857 
	C383.890625,1085.266479 378.882568,1071.861084 374.340729,1058.301025 
	C370.903351,1048.038452 367.355347,1037.711060 365.218658,1027.137329 
	C361.554749,1009.005798 358.176636,990.746765 356.109558,972.380249 
	C353.630005,950.348633 352.219482,928.168335 351.186432,906.013306 
	C350.599731,893.430420 351.637146,880.767395 352.053192,868.144043 
	C352.277161,861.347961 352.230438,854.488281 353.180267,847.781189 
	C355.890381,828.643555 358.698303,809.505615 362.160156,790.493896 
	C364.277374,778.866638 367.575531,767.447266 370.521729,755.980347 
	C372.566711,748.020996 374.838135,740.117004 377.153900,732.231018 
	C378.874237,726.372437 380.518402,720.460693 382.746460,714.788757 
	C386.608490,704.957336 390.733887,695.220459 395.046936,685.577332 
	C400.470734,673.450562 405.743988,661.221497 411.910980,649.471497 
	C418.498840,636.919678 425.863861,624.759888 433.242767,612.643982 
	C439.335175,602.640381 445.729401,592.802917 452.391266,583.169495 
	C457.401917,575.923889 463.061615,569.128052 468.405304,562.111328 
	C470.289368,559.637390 471.769379,556.760559 473.990967,554.655701 
	C482.129456,546.944824 487.739044,537.013123 496.761597,529.973938 
	C502.268585,525.677551 506.144562,519.357178 511.217285,514.423096 
	C520.544861,505.350525 530.143738,496.551788 539.769836,487.793121 
	C545.329224,482.734650 551.097229,477.897888 556.901550,473.119507 
	C559.703552,470.812683 562.901245,468.990662 565.746033,466.730347 
	C568.572144,464.484894 571.050598,461.793457 573.925720,459.620850 
	C576.139893,457.947693 578.869141,456.965546 581.129028,455.341705 
	C586.303650,451.623444 591.143188,447.411804 596.471191,443.941559 
	C601.851990,440.436920 607.687378,437.636383 613.271484,434.436523 
	C625.557495,427.396271 637.659241,420.016571 650.132324,413.327637 
	C657.958679,409.130646 666.297607,405.878876 674.451721,402.306122 
	C685.343750,397.533722 696.204834,392.676636 707.225647,388.217865 
	C713.452637,385.698517 719.931335,383.766052 726.373169,381.822845 
	C732.958740,379.836212 739.615845,378.073944 746.280518,376.364929 
	C761.185791,372.542816 776.045044,368.498688 791.060852,365.165710 
	C800.232483,363.129974 809.734619,362.619659 818.957153,360.770081 
	C839.857117,356.578613 861.036560,355.588074 882.218262,355.156982 
	C898.330994,354.829071 914.482361,355.382355 930.589478,356.127625 
	C942.132996,356.661774 953.716003,357.612122 965.130005,359.363556 
	C980.909424,361.784821 996.567749,365.026611 1012.236450,368.126617 
	C1021.460876,369.951660 1030.752930,371.685669 1039.745728,374.363617 
	C1049.727051,377.336029 1059.442627,381.229065 1069.201172,384.914185 
	C1084.452026,390.673309 1099.787964,396.246857 1114.805176,402.570374 
	C1124.725830,406.747742 1134.787964,410.587738 1143.994629,416.602142 
	C1151.900269,421.766632 1161.197876,424.747589 1169.603638,429.213837 
	C1178.617065,434.002960 1187.468384,439.145050 1196.099487,444.593933 
	C1207.134155,451.560242 1217.887695,458.972565 1228.742310,466.222717 
	C1234.216797,469.879181 1239.863892,473.323120 1245.046021,477.360046 
	C1252.737427,483.351746 1260.066772,489.807068 1267.584351,496.023865 
	C1276.820190,503.661743 1286.098755,511.248016 1295.341553,518.877686 
	C1297.614502,520.753967 1299.946777,522.584106 1302.033691,524.655151 
	C1308.929932,531.499146 1315.651367,538.520447 1322.590698,545.319641 
	C1326.569580,549.218201 1331.207031,552.491516 1334.898804,556.625977 
	C1341.255615,563.744995 1347.098022,571.322754 1353.169800,578.696899 
	C1363.049927,590.695923 1372.984131,602.650879 1382.794922,614.706116 
	C1385.076660,617.509888 1386.968750,620.632629 1389.014771,623.625916 
	C1394.678467,631.912781 1400.420532,640.148743 1405.922729,648.541748 
	C1407.369751,650.749023 1408.058472,653.453430 1408.995728,656.010803 
	C1408.896118,656.092041 1408.696533,656.253967 1408.696533,656.253967 
z"/>
<path fill="#D4B674" opacity="1.000000" stroke="none" 
	d="
M1473.227417,1440.192139 
	C1467.077026,1449.841675 1461.158936,1459.648071 1454.502563,1468.924805 
	C1436.285278,1494.313232 1415.832397,1517.853027 1394.554932,1540.718750 
	C1374.388062,1562.390503 1353.081055,1582.819824 1329.900757,1601.226196 
	C1311.875244,1615.539307 1293.735229,1629.722778 1275.302246,1643.504150 
	C1252.908691,1660.246582 1224.196655,1653.833618 1210.458618,1631.840698 
	C1203.157471,1620.152222 1203.178223,1606.595337 1208.086548,1593.011963 
	C1212.009155,1582.156738 1220.806030,1576.547974 1228.992554,1570.136230 
	C1240.738037,1560.937134 1253.084595,1552.491455 1264.646851,1543.076050 
	C1277.703613,1532.443359 1290.810425,1521.733765 1302.753540,1509.904419 
	C1320.745239,1492.084473 1338.218506,1473.682739 1355.011353,1454.730225 
	C1367.514404,1440.619141 1379.087158,1425.603394 1390.149536,1410.321289 
	C1399.351318,1397.609863 1407.410400,1384.048340 1415.602173,1370.635498 
	C1424.065674,1356.777588 1432.569824,1342.903564 1440.134766,1328.550903 
	C1446.301147,1316.851440 1451.110352,1304.436646 1456.517456,1292.337036 
	C1459.418701,1285.844604 1462.522705,1279.432861 1465.158081,1272.833984 
	C1469.079346,1263.015991 1472.713135,1253.081787 1476.377441,1243.163086 
	C1478.202881,1238.222290 1479.977295,1233.252563 1481.508301,1228.214966 
	C1485.378418,1215.480957 1489.428589,1202.787231 1492.778687,1189.913818 
	C1495.770020,1178.418945 1498.218018,1166.760498 1500.374512,1155.076172 
	C1503.739502,1136.844849 1506.933350,1118.572021 1509.660156,1100.236450 
	C1511.365845,1088.767090 1512.330444,1077.168823 1513.172241,1065.595093 
	C1514.052612,1053.490723 1514.998291,1041.338013 1514.822754,1029.222046 
	C1514.536377,1009.454895 1513.575562,989.688843 1512.485229,969.945190 
	C1511.828979,958.059998 1510.812744,946.159973 1509.195190,934.371277 
	C1507.100098,919.104065 1504.545532,903.882996 1501.615845,888.752991 
	C1499.514648,877.901062 1496.614746,867.194275 1493.818726,856.488647 
	C1489.912964,841.534729 1486.514893,826.390015 1481.553467,811.784119 
	C1474.577515,791.247559 1467.126831,770.798889 1458.460571,750.931396 
	C1450.472656,732.619141 1440.881226,714.980713 1431.486328,697.316528 
	C1424.708740,684.573608 1417.085571,672.280884 1409.875732,659.766479 
	C1409.387573,658.919128 1409.203857,657.896484 1408.787476,656.604675 
	C1408.696533,656.253967 1408.896118,656.092041 1409.289185,656.183105 
	C1410.971069,657.292786 1412.652100,658.064392 1413.477173,659.374878 
	C1416.280518,663.827332 1418.779785,668.471252 1421.398315,673.040344 
	C1429.403442,687.007874 1437.725952,700.805664 1445.310181,714.998047 
	C1450.829712,725.326538 1455.565186,736.091675 1460.295410,746.818542 
	C1464.089233,755.422119 1467.428467,764.230530 1470.809814,773.009399 
	C1472.218140,776.666138 1473.022949,780.555237 1474.431396,784.211853 
	C1478.071045,793.659668 1482.424316,802.866760 1485.508057,812.485718 
	C1489.298950,824.310730 1492.338135,836.396301 1495.257935,848.476685 
	C1499.709961,866.895203 1504.002319,885.359253 1507.909546,903.899414 
	C1509.574585,911.800354 1510.215088,919.928833 1511.115479,927.976929 
	C1513.136719,946.044556 1515.416748,964.096497 1516.825806,982.214355 
	C1517.643677,992.731018 1517.092773,1003.364502 1516.955200,1013.942871 
	C1516.714844,1032.397583 1516.485352,1050.855469 1515.912109,1069.301514 
	C1515.650391,1077.726196 1514.848877,1086.159058 1513.811890,1094.528687 
	C1512.480103,1105.276367 1510.768555,1115.981323 1509.007324,1126.669556 
	C1508.295776,1130.987793 1506.850830,1135.181030 1506.035889,1139.487183 
	C1503.951904,1150.499146 1502.120483,1161.559082 1500.002441,1172.563965 
	C1499.288330,1176.274292 1497.878052,1179.845337 1497.027100,1183.535645 
	C1495.294434,1191.048462 1494.008789,1198.675293 1492.010986,1206.113159 
	C1489.946045,1213.800903 1487.261353,1221.322754 1484.835815,1228.913208 
	C1482.125000,1237.395996 1479.777344,1246.019165 1476.585205,1254.317261 
	C1472.798950,1264.159302 1468.272461,1273.716064 1464.082642,1283.403198 
	C1461.289307,1289.861572 1458.795776,1296.465698 1455.693604,1302.771118 
	C1447.238770,1319.956787 1438.587524,1337.046997 1429.884888,1354.109009 
	C1427.751587,1358.291748 1425.208008,1362.275146 1422.705078,1366.257080 
	C1418.166748,1373.477661 1413.527222,1380.634644 1408.911499,1387.806396 
	C1403.019287,1396.961426 1397.614502,1406.484863 1391.086914,1415.163086 
	C1381.562012,1427.825928 1371.268921,1439.914307 1361.216797,1452.176392 
	C1355.114502,1459.620361 1348.972900,1467.039429 1342.612671,1474.261597 
	C1338.470581,1478.964844 1333.847656,1483.241089 1329.540283,1487.803223 
	C1322.602661,1495.151245 1315.999390,1502.834961 1308.778442,1509.889404 
	C1302.881836,1515.650024 1296.348877,1520.770020 1289.992188,1526.046631 
	C1277.571655,1536.356689 1265.180786,1546.707397 1252.573730,1556.786133 
	C1245.141602,1562.727905 1237.159302,1567.980957 1229.724243,1573.919189 
	C1224.478149,1578.109009 1219.027344,1582.367676 1214.900146,1587.572632 
	C1201.942871,1603.913574 1207.346802,1624.813477 1218.785522,1637.725098 
	C1225.991333,1645.858887 1236.538086,1650.127441 1248.106079,1650.039673 
	C1258.564575,1649.960205 1267.457031,1645.721558 1275.675781,1639.772339 
	C1281.345093,1635.668457 1286.820923,1631.298218 1292.414673,1627.089111 
	C1297.367920,1623.362305 1302.497803,1619.858032 1307.312500,1615.962158 
	C1315.634766,1609.228638 1323.745728,1602.234619 1331.999878,1595.415894 
	C1336.078125,1592.046997 1340.509277,1589.074341 1344.373779,1585.484131 
	C1351.929199,1578.464966 1359.192749,1571.131958 1366.588257,1563.940552 
	C1375.279907,1555.488647 1384.446777,1547.466064 1392.537354,1538.474243 
	C1399.168823,1531.103882 1406.505371,1524.408936 1412.193115,1515.989624 
	C1416.190674,1510.072632 1422.167969,1505.365845 1426.493164,1499.278931 
	C1432.717285,1490.519775 1439.945557,1482.479248 1446.598389,1474.016479 
	C1448.801270,1471.214355 1450.412354,1467.953003 1452.540649,1465.084595 
	C1455.556641,1461.020020 1458.763062,1457.094116 1461.957642,1453.165527 
	C1465.569946,1448.723267 1469.259155,1444.343506 1472.915039,1439.936523 
	C1472.914917,1439.936523 1473.122925,1440.107300 1473.227417,1440.192139 
z"/>
<path fill="#DEAC4D" opacity="1.000000" stroke="none" 
	d="
M1472.940308,1439.554443 
	C1469.259155,1444.343506 1465.569946,1448.723267 1461.957642,1453.165527 
	C1458.763062,1457.094116 1455.556641,1461.020020 1452.540649,1465.084595 
	C1450.412354,1467.953003 1448.801270,1471.214355 1446.598389,1474.016479 
	C1439.945557,1482.479248 1432.717285,1490.519775 1426.493164,1499.278931 
	C1422.167969,1505.365845 1416.190674,1510.072632 1412.193115,1515.989624 
	C1406.505371,1524.408936 1399.168823,1531.103882 1392.537354,1538.474243 
	C1384.446777,1547.466064 1375.279907,1555.488647 1366.588257,1563.940552 
	C1359.192749,1571.131958 1351.929199,1578.464966 1344.373779,1585.484131 
	C1340.509277,1589.074341 1336.078125,1592.046997 1331.999878,1595.415894 
	C1323.745728,1602.234619 1315.634766,1609.228638 1307.312500,1615.962158 
	C1302.497803,1619.858032 1297.367920,1623.362305 1292.414673,1627.089111 
	C1286.820923,1631.298218 1281.345093,1635.668457 1275.675781,1639.772339 
	C1267.457031,1645.721558 1258.564575,1649.960205 1248.106079,1650.039673 
	C1236.538086,1650.127441 1225.991333,1645.858887 1218.785522,1637.725098 
	C1207.346802,1624.813477 1201.942871,1603.913574 1214.900146,1587.572632 
	C1219.027344,1582.367676 1224.478149,1578.109009 1229.724243,1573.919189 
	C1237.159302,1567.980957 1245.141602,1562.727905 1252.573730,1556.786133 
	C1265.180786,1546.707397 1277.571655,1536.356689 1289.992188,1526.046631 
	C1296.348877,1520.770020 1302.881836,1515.650024 1308.778442,1509.889404 
	C1315.999390,1502.834961 1322.602661,1495.151245 1329.540283,1487.803223 
	C1333.847656,1483.241089 1338.470581,1478.964844 1342.612671,1474.261597 
	C1348.972900,1467.039429 1355.114502,1459.620361 1361.216797,1452.176392 
	C1371.268921,1439.914307 1381.562012,1427.825928 1391.086914,1415.163086 
	C1397.614502,1406.484863 1403.019287,1396.961426 1408.911499,1387.806396 
	C1413.527222,1380.634644 1418.166748,1373.477661 1422.705078,1366.257080 
	C1425.208008,1362.275146 1427.751587,1358.291748 1429.884888,1354.109009 
	C1438.587524,1337.046997 1447.238770,1319.956787 1455.693604,1302.771118 
	C1458.795776,1296.465698 1461.289307,1289.861572 1464.082642,1283.403198 
	C1468.272461,1273.716064 1472.798950,1264.159302 1476.585205,1254.317261 
	C1479.777344,1246.019165 1482.125000,1237.395996 1484.835815,1228.913208 
	C1487.261353,1221.322754 1489.946045,1213.800903 1492.010986,1206.113159 
	C1494.008789,1198.675293 1495.294434,1191.048462 1497.027100,1183.535645 
	C1497.878052,1179.845337 1499.288330,1176.274292 1500.002441,1172.563965 
	C1502.120483,1161.559082 1503.951904,1150.499146 1506.035889,1139.487183 
	C1506.850830,1135.181030 1508.295776,1130.987793 1509.007324,1126.669556 
	C1510.768555,1115.981323 1512.480103,1105.276367 1513.811890,1094.528687 
	C1514.848877,1086.159058 1515.650391,1077.726196 1515.912109,1069.301514 
	C1516.485352,1050.855469 1516.714844,1032.397583 1516.955200,1013.942871 
	C1517.092773,1003.364502 1517.643677,992.731018 1516.825806,982.214355 
	C1515.416748,964.096497 1513.136719,946.044556 1511.115479,927.976929 
	C1510.215088,919.928833 1509.574585,911.800354 1507.909546,903.899414 
	C1504.002319,885.359253 1499.709961,866.895203 1495.257935,848.476685 
	C1492.338135,836.396301 1489.298950,824.310730 1485.508057,812.485718 
	C1482.424316,802.866760 1478.071045,793.659668 1474.431396,784.211853 
	C1473.022949,780.555237 1472.218140,776.666138 1470.809814,773.009399 
	C1467.428467,764.230530 1464.089233,755.422119 1460.295410,746.818542 
	C1455.565186,736.091675 1450.829712,725.326538 1445.310181,714.998047 
	C1437.725952,700.805664 1429.403442,687.007874 1421.398315,673.040344 
	C1418.779785,668.471252 1416.280518,663.827332 1413.477173,659.374878 
	C1412.652100,658.064392 1410.971069,657.292786 1409.388794,656.101929 
	C1408.058472,653.453430 1407.369751,650.749023 1405.922729,648.541748 
	C1400.420532,640.148743 1394.678467,631.912781 1389.014771,623.625916 
	C1386.968750,620.632629 1385.076660,617.509888 1382.794922,614.706116 
	C1372.984131,602.650879 1363.049927,590.695923 1353.169800,578.696899 
	C1347.098022,571.322754 1341.255615,563.744995 1334.898804,556.625977 
	C1331.207031,552.491516 1326.569580,549.218201 1322.590698,545.319641 
	C1315.651367,538.520447 1308.929932,531.499146 1302.033691,524.655151 
	C1299.946777,522.584106 1297.614502,520.753967 1295.341553,518.877686 
	C1286.098755,511.248016 1276.820190,503.661743 1267.584351,496.023865 
	C1260.066772,489.807068 1252.737427,483.351746 1245.046021,477.360046 
	C1239.863892,473.323120 1234.216797,469.879181 1228.742310,466.222717 
	C1217.887695,458.972565 1207.134155,451.560242 1196.099487,444.593933 
	C1187.468384,439.145050 1178.617065,434.002960 1169.603638,429.213837 
	C1161.197876,424.747589 1151.900269,421.766632 1143.994629,416.602142 
	C1134.787964,410.587738 1124.725830,406.747742 1114.805176,402.570374 
	C1099.787964,396.246857 1084.452026,390.673309 1069.201172,384.914185 
	C1059.442627,381.229065 1049.727051,377.336029 1039.745728,374.363617 
	C1030.752930,371.685669 1021.460876,369.951660 1012.236450,368.126617 
	C996.567749,365.026611 980.909424,361.784821 965.130005,359.363556 
	C953.716003,357.612122 942.132996,356.661774 930.589478,356.127625 
	C914.482361,355.382355 898.330994,354.829071 882.218262,355.156982 
	C861.036560,355.588074 839.857117,356.578613 818.957153,360.770081 
	C809.734619,362.619659 800.232483,363.129974 791.060852,365.165710 
	C776.045044,368.498688 761.185791,372.542816 746.280518,376.364929 
	C739.615845,378.073944 732.958740,379.836212 726.373169,381.822845 
	C719.931335,383.766052 713.452637,385.698517 707.225647,388.217865 
	C696.204834,392.676636 685.343750,397.533722 674.451721,402.306122 
	C666.297607,405.878876 657.958679,409.130646 650.132324,413.327637 
	C637.659241,420.016571 625.557495,427.396271 613.271484,434.436523 
	C607.687378,437.636383 601.851990,440.436920 596.471191,443.941559 
	C591.143188,447.411804 586.303650,451.623444 581.129028,455.341705 
	C578.869141,456.965546 576.139893,457.947693 573.925720,459.620850 
	C571.050598,461.793457 568.572144,464.484894 565.746033,466.730347 
	C562.901245,468.990662 559.703552,470.812683 556.901550,473.119507 
	C551.097229,477.897888 545.329224,482.734650 539.769836,487.793121 
	C530.143738,496.551788 520.544861,505.350525 511.217285,514.423096 
	C506.144562,519.357178 502.268585,525.677551 496.761597,529.973938 
	C487.739044,537.013123 482.129456,546.944824 473.990967,554.655701 
	C471.769379,556.760559 470.289368,559.637390 468.405304,562.111328 
	C463.061615,569.128052 457.401917,575.923889 452.391266,583.169495 
	C445.729401,592.802917 439.335175,602.640381 433.242767,612.643982 
	C425.863861,624.759888 418.498840,636.919678 411.910980,649.471497 
	C405.743988,661.221497 400.470734,673.450562 395.046936,685.577332 
	C390.733887,695.220459 386.608490,704.957336 382.746460,714.788757 
	C380.518402,720.460693 378.874237,726.372437 377.153900,732.231018 
	C374.838135,740.117004 372.566711,748.020996 370.521729,755.980347 
	C367.575531,767.447266 364.277374,778.866638 362.160156,790.493896 
	C358.698303,809.505615 355.890381,828.643555 353.180267,847.781189 
	C352.230438,854.488281 352.277161,861.347961 352.053192,868.144043 
	C351.637146,880.767395 350.599731,893.430420 351.186432,906.013306 
	C352.219482,928.168335 353.630005,950.348633 356.109558,972.380249 
	C358.176636,990.746765 361.554749,1009.005798 365.218658,1027.137329 
	C367.355347,1037.711060 370.903351,1048.038452 374.340729,1058.301025 
	C378.882568,1071.861084 383.890625,1085.266479 388.792755,1098.703857 
	C391.279083,1105.519165 393.656250,1112.402344 396.646912,1118.999146 
	C401.116180,1128.857178 406.069092,1138.496582 410.843018,1148.215820 
	C414.598480,1155.861572 417.992554,1163.722046 422.277435,1171.060913 
	C427.264099,1179.601929 432.944061,1187.747803 438.508636,1195.939209 
	C445.926147,1206.858154 453.274292,1217.839600 461.126068,1228.443237 
	C466.686493,1235.952515 473.152161,1242.784546 478.987335,1250.099487 
	C483.359222,1255.580078 487.290283,1261.410645 491.594910,1266.947510 
	C492.757874,1268.443237 494.736603,1269.279053 496.046417,1270.690796 
	C500.190033,1275.157104 504.114319,1279.828247 508.299622,1284.253418 
	C509.600739,1285.629150 511.709412,1286.238892 513.018127,1287.610107 
	C515.853394,1290.580566 518.185242,1294.050903 521.135376,1296.887939 
	C525.494324,1301.079712 530.160889,1304.959106 534.788635,1308.862183 
	C541.863037,1314.828491 548.777100,1321.022461 556.191162,1326.539429 
	C567.532654,1334.978760 579.234802,1342.934082 590.800537,1351.071045 
	C593.464966,1352.945435 596.152649,1354.793945 598.905579,1356.534180 
	C609.968750,1363.528198 620.933960,1370.689331 632.173523,1377.389160 
	C649.357422,1387.632324 667.836975,1395.219116 686.254333,1402.882446 
	C694.953003,1406.501831 703.643188,1410.222046 712.572815,1413.187256 
	C726.025940,1417.654663 739.613098,1421.762939 753.278137,1425.535400 
	C766.885010,1429.291748 780.516418,1433.273071 794.394836,1435.652222 
	C811.473694,1438.580200 828.983093,1439.063843 846.011353,1442.203857 
	C871.684509,1446.938110 897.448425,1444.545044 923.157898,1444.755127 
	C935.316895,1444.854492 947.521790,1442.706177 959.658508,1441.195190 
	C971.462646,1439.725586 983.250366,1438.019409 994.962769,1435.950073 
	C1004.879272,1434.198242 1014.768372,1432.124634 1024.507690,1429.574707 
	C1039.928711,1425.536865 1055.405884,1421.552002 1070.501831,1416.480469 
	C1084.659302,1411.724243 1098.374146,1405.639648 1112.239990,1400.031616 
	C1117.572510,1397.874878 1122.662964,1395.076904 1128.073486,1393.163940 
	C1144.398193,1387.391602 1158.710327,1390.464722 1171.374023,1402.691284 
	C1182.210327,1413.153442 1184.659424,1425.984253 1181.621826,1439.539673 
	C1179.283691,1449.973145 1173.621338,1458.813232 1163.303711,1464.630127 
	C1149.184570,1472.589966 1134.158447,1478.155884 1119.217041,1484.033325 
	C1108.735474,1488.156738 1098.130859,1491.995972 1087.453491,1495.582153 
	C1081.081299,1497.722534 1074.459595,1499.117310 1067.955322,1500.867065 
	C1053.771362,1504.682617 1039.683960,1508.916870 1025.378662,1512.202881 
	C1014.296082,1514.748535 1002.962708,1516.245361 991.704407,1517.971191 
	C978.234558,1520.036133 964.748535,1522.031616 951.224792,1523.693726 
	C944.325867,1524.541626 937.333130,1524.849854 930.376099,1524.952393 
	C917.293457,1525.145264 904.172180,1524.416626 891.128662,1525.157104 
	C872.510559,1526.214111 854.071899,1524.261963 835.625183,1522.820312 
	C823.142517,1521.844604 810.766541,1519.346069 798.384949,1517.276733 
	C784.849609,1515.014404 771.291748,1512.793701 757.878052,1509.926147 
	C747.929871,1507.799561 738.196350,1504.668701 728.367126,1501.985229 
	C722.314880,1500.332764 716.224243,1498.806641 710.223083,1496.985840 
	C705.845154,1495.657227 701.618286,1493.838257 697.263000,1492.426147 
	C693.269165,1491.131226 689.099060,1490.343262 685.172119,1488.885864 
	C674.437988,1484.901611 663.704346,1480.891357 653.133301,1476.499390 
	C641.709473,1471.753418 630.273804,1466.958740 619.204346,1461.458374 
	C607.721191,1455.752441 596.600342,1449.299194 585.451477,1442.943970 
	C575.029053,1437.002930 564.679199,1430.920410 554.488464,1424.592529 
	C548.536438,1420.896729 542.961426,1416.593994 537.212097,1412.571045 
	C529.559265,1407.216553 521.828613,1401.968994 514.286316,1396.463379 
	C511.677307,1394.558838 509.524231,1392.027344 507.177765,1389.766846 
	C506.338318,1388.958130 505.640015,1387.970093 504.710236,1387.293335 
	C499.880737,1383.778442 494.630829,1380.745361 490.216461,1376.777710 
	C483.145844,1370.422852 476.657104,1363.423950 469.830750,1356.791504 
	C468.104034,1355.113892 465.843048,1353.979370 464.150665,1352.274536 
	C458.222900,1346.303101 452.428131,1340.199463 446.598297,1334.131226 
	C440.180115,1327.450562 433.546844,1320.957886 427.430634,1314.010620 
	C420.177521,1305.771973 413.218658,1297.259521 406.427521,1288.633423 
	C400.691345,1281.347290 395.282013,1273.796875 389.903015,1266.238892 
	C384.840820,1259.125854 380.674408,1251.254517 374.906311,1244.795166 
	C367.535889,1236.541504 363.107849,1226.627197 357.336090,1217.494995 
	C350.418152,1206.549072 342.731018,1195.746338 338.032837,1183.834106 
	C333.012543,1171.105103 325.362946,1159.737305 320.949005,1146.784180 
	C317.785095,1137.499634 313.540039,1128.588867 309.995087,1119.427124 
	C305.969238,1109.022461 301.873718,1098.626099 298.414520,1088.028320 
	C296.342163,1081.679321 295.474823,1074.941406 293.964935,1068.401611 
	C293.568817,1066.685913 292.838043,1065.040527 292.187012,1063.392212 
	C291.223358,1060.952148 289.775970,1058.623047 289.264374,1056.098633 
	C287.039032,1045.118652 285.107574,1034.079590 283.011902,1023.072876 
	C281.251312,1013.825867 279.277405,1004.617310 277.661163,995.345825 
	C276.811188,990.469971 276.954956,985.402710 275.910431,980.582153 
	C271.290527,959.260620 271.507935,937.595215 271.004059,915.984680 
	C270.769012,905.905457 270.733673,895.809143 271.027252,885.732727 
	C271.517944,868.891174 271.759888,852.008423 273.219635,835.239929 
	C274.346893,822.291382 277.098419,809.477478 279.278320,796.629272 
	C281.073425,786.048645 282.810547,775.444824 285.091766,764.964111 
	C287.082123,755.819824 289.620697,746.782166 292.230835,737.788452 
	C296.270416,723.869385 300.125641,709.870300 304.899078,696.198425 
	C309.564606,682.835693 315.200531,669.806946 320.563110,656.693970 
	C325.358917,644.966919 330.022461,633.165222 335.398804,621.703491 
	C338.785919,614.482544 343.467651,607.877014 347.385101,600.892578 
	C348.986786,598.036804 349.811890,594.733643 351.495056,591.937866 
	C356.837708,583.063965 362.385132,574.312378 367.915649,565.552856 
	C373.849548,556.154480 379.345917,546.423706 385.951721,537.519409 
	C394.937927,525.406494 404.790466,513.935974 414.280396,502.197235 
	C420.558655,494.431274 426.806244,486.639648 433.174805,478.948273 
	C434.625885,477.195862 436.607819,475.894531 438.192657,474.239258 
	C443.539886,468.654297 448.630859,462.810516 454.171234,457.427399 
	C460.856842,450.931610 467.903717,444.807800 474.789764,438.518066 
	C479.406952,434.300812 483.902679,429.941193 488.664398,425.894318 
	C492.704742,422.460571 497.098877,419.446930 501.246124,416.134308 
	C507.703400,410.976471 513.953735,405.550140 520.543884,400.571381 
	C524.832336,397.331512 529.713623,394.883087 534.059875,391.710907 
	C537.859497,388.937653 541.014709,385.239044 544.930542,382.676514 
	C552.127625,377.966797 559.703979,373.840210 567.057068,369.363403 
	C569.165405,368.079742 570.925537,366.211761 573.060059,364.985748 
	C579.308350,361.396881 585.074158,357.184723 592.253235,354.952820 
	C597.937866,353.185455 602.684875,348.531982 608.009277,345.437012 
	C612.542908,342.801727 617.285767,340.521088 621.972717,338.156097 
	C628.220459,335.003479 634.491516,331.896179 640.780640,328.826904 
	C642.261169,328.104370 643.871582,327.653320 645.392212,327.006653 
	C654.744873,323.029266 664.046570,318.927612 673.455200,315.087982 
	C677.663330,313.370697 682.061646,312.105316 686.406433,310.739288 
	C700.731079,306.235657 715.039368,301.675629 729.418274,297.350952 
	C736.217163,295.306061 743.309448,294.175903 750.009705,291.876556 
	C763.213867,287.345215 777.086853,286.584259 790.624329,283.968353 
	C798.411194,282.463654 806.223083,281.072449 814.053162,279.813843 
	C818.942200,279.028015 823.877197,278.494598 828.807129,278.004272 
	C842.301819,276.662109 855.803772,275.393127 869.305603,274.124146 
	C870.794067,273.984253 872.300964,273.979156 873.798035,274.000580 
	C896.033752,274.318512 918.320190,272.786530 940.442322,276.816986 
	C947.236938,278.054901 954.357422,277.383148 961.285522,278.040314 
	C970.006958,278.867493 978.688232,280.129303 987.378845,281.265106 
	C992.619995,281.950104 997.923828,282.406433 1003.064026,283.566193 
	C1018.305664,287.005066 1033.554077,290.461884 1048.658081,294.448578 
	C1061.356445,297.800354 1073.984741,301.528961 1086.411011,305.773224 
	C1101.147095,310.806458 1115.756714,316.266602 1130.186768,322.119690 
	C1140.660278,326.368011 1150.453491,332.435699 1161.105835,336.057404 
	C1170.273193,339.174164 1178.138550,344.542358 1186.911011,348.253387 
	C1196.605835,352.354675 1205.994385,357.284698 1215.187012,362.440765 
	C1225.846680,368.419647 1236.318848,374.775452 1246.555908,381.452820 
	C1256.335083,387.831421 1265.636108,394.937805 1275.283813,401.524384 
	C1281.785278,405.963013 1288.742432,409.754425 1295.097168,414.382660 
	C1301.901245,419.338165 1308.267456,424.899689 1314.770630,430.262329 
	C1321.908081,436.148041 1329.107422,441.967926 1336.052002,448.075684 
	C1343.121216,454.293091 1349.898804,460.841431 1356.830322,467.216431 
	C1363.882812,473.702667 1371.082397,480.034302 1377.988647,486.671844 
	C1381.389893,489.940796 1384.205200,493.811096 1387.410278,497.294708 
	C1391.526611,501.768921 1395.942139,505.977356 1399.915161,510.571564 
	C1405.915649,517.510437 1411.562500,524.754272 1417.526367,531.725952 
	C1420.271729,534.934998 1423.722046,537.563171 1426.316772,540.874634 
	C1434.836182,551.747437 1443.202026,562.744263 1451.449707,573.825378 
	C1458.140015,582.813965 1464.704102,591.903198 1471.079224,601.117249 
	C1475.678589,607.764648 1480.175293,614.518494 1484.194946,621.524780 
	C1494.977051,640.318115 1505.736328,659.134033 1515.989380,678.217712 
	C1521.703369,688.852905 1526.460938,700.007385 1531.515015,710.989807 
	C1535.267212,719.143250 1539.096436,727.281006 1542.371216,735.629883 
	C1548.403076,751.007874 1554.467529,766.396057 1559.741455,782.041870 
	C1564.715454,796.797668 1569.142212,811.775696 1572.965942,826.869629 
	C1576.279175,839.947754 1580.889648,852.756836 1581.249756,866.571655 
	C1581.384766,871.750244 1584.534668,876.777161 1585.412964,882.023438 
	C1587.868652,896.691345 1590.086426,911.408325 1591.963745,926.161255 
	C1593.883789,941.249634 1595.299683,956.402466 1596.902344,971.530640 
	C1597.059692,973.015808 1597.005859,974.526062 1597.006104,976.024658 
	C1597.011597,1001.357239 1597.481934,1026.701660 1596.843750,1052.018188 
	C1596.418823,1068.873535 1594.502808,1085.697021 1593.074707,1102.519409 
	C1592.236572,1112.394409 1591.221680,1122.262085 1589.956787,1132.090576 
	C1589.037231,1139.235229 1587.527344,1146.302124 1586.380737,1153.419800 
	C1585.802856,1157.008057 1585.701904,1160.688354 1584.923828,1164.225464 
	C1584.035400,1168.264526 1582.446899,1172.146240 1581.487915,1176.173828 
	C1577.902344,1191.231079 1574.847290,1206.427124 1570.824951,1221.364258 
	C1567.464111,1233.844604 1563.015259,1246.031128 1559.076294,1258.356812 
	C1557.058228,1264.671631 1555.348145,1271.098389 1553.030396,1277.299561 
	C1551.486450,1281.430908 1549.116577,1285.253784 1547.112183,1289.212646 
	C1546.903442,1289.624878 1546.439209,1290.049072 1546.480103,1290.425659 
	C1547.477661,1299.593750 1541.592163,1306.625977 1538.561768,1314.402588 
	C1533.130737,1328.340088 1526.448730,1341.804077 1519.988525,1355.322266 
	C1515.123535,1365.502563 1510.140015,1375.658081 1504.569214,1385.460815 
	C1498.245728,1396.588257 1491.218872,1407.316406 1484.479858,1418.207031 
	C1481.118774,1423.638916 1477.644043,1429.002563 1474.387451,1434.495850 
	C1473.580322,1435.857178 1473.421997,1437.603027 1472.940308,1439.554443 
z"/>
</svg>